<?xml version="1.0" encoding="utf-8"?>
<!-- Generator: Adobe Illustrator 23.0.0, SVG Export Plug-In . SVG Version: 6.00 Build 0)  -->
<svg version="1.1" id="Layer_1" xmlns="http://www.w3.org/2000/svg" xmlns:xlink="http://www.w3.org/1999/xlink" x="0px" y="0px"
	 viewBox="0 0 16 16" style="enable-background:new 0 0 16 16;" xml:space="preserve">
<style type="text/css">
	.st0{fill:#008000;}
</style>
<g id="check">
	<g>
		<path class="st0" d="M6.8,13.7c-0.2,0-0.3-0.1-0.5-0.2l-2.1-2.1l-0.1-0.1L0.7,7.8c-0.2-0.2-0.2-0.7,0-0.9l2.1-2.1
			C3,4.7,3.1,4.6,3.3,4.6s0.3,0.1,0.5,0.2l3.1,3.1l5.4-5.4c0.1-0.1,0.3-0.2,0.5-0.2s0.3,0.1,0.5,0.2l2.1,2.1c0.2,0.2,0.2,0.7,0,0.9
			l-8,8C7.1,13.7,7,13.7,6.8,13.7z"/>
		<path class="st0" d="M12.7,2.8C12.7,2.8,12.8,2.8,12.7,2.8L15,5C15,5,15,5.1,15,5.1l-8,8c0,0-0.1,0-0.1,0s-0.1,0-0.1,0l-2.1-2.1
			l0,0L4.6,11l0,0l0,0L1,7.5C1,7.4,1,7.3,1,7.3l2.1-2.1c0,0,0.1,0,0.1,0s0.1,0,0.1,0l2.7,2.7l0.7,0.7l0.7-0.7L12.7,2.8
			C12.7,2.8,12.7,2.8,12.7,2.8"/>
	</g>
</g>
</svg>