<?xml version="1.0" encoding="utf-8"?>
<!-- Generator: Adobe Illustrator 16.0.0, SVG Export Plug-In . SVG Version: 6.00 Build 0)  -->
<!DOCTYPE svg PUBLIC "-//W3C//DTD SVG 1.1//EN" "http://www.w3.org/Graphics/SVG/1.1/DTD/svg11.dtd">
<svg version="1.1" id="Layer_1" xmlns="http://www.w3.org/2000/svg" xmlns:xlink="http://www.w3.org/1999/xlink" x="0px" y="0px"
	 width="24px" height="24px" viewBox="0 0 24 24" enable-background="new 0 0 24 24" xml:space="preserve">
<g>
	<path fill="#FF0000" d="M18.781,12c0,1.222-0.306,2.352-0.916,3.391c-0.611,1.039-1.436,1.863-2.475,2.475
		c-1.039,0.61-2.17,0.916-3.391,0.916c-1.222,0-2.352-0.306-3.391-0.916c-1.039-0.611-1.864-1.436-2.475-2.475
		C5.524,14.352,5.219,13.222,5.219,12c0-1.221,0.305-2.352,0.916-3.391C6.745,7.57,7.57,6.746,8.609,6.135
		C9.648,5.524,10.778,5.219,12,5.219c1.221,0,2.352,0.306,3.391,0.916c1.039,0.611,1.863,1.436,2.475,2.475
		C18.476,9.648,18.781,10.779,18.781,12z M12,13.367c-0.347,0-0.643,0.123-0.889,0.369s-0.369,0.543-0.369,0.889
		c0,0.347,0.123,0.643,0.369,0.889s0.542,0.369,0.889,0.369c0.346,0,0.643-0.123,0.889-0.369s0.369-0.542,0.369-0.889
		c0-0.346-0.123-0.643-0.369-0.889S12.346,13.367,12,13.367z M10.797,8.855l0.219,3.719c0,0.073,0.031,0.142,0.096,0.205
		c0.063,0.064,0.141,0.096,0.232,0.096h1.313c0.091,0,0.168-0.031,0.232-0.096c0.063-0.063,0.096-0.132,0.096-0.205l0.219-3.719
		c0-0.109-0.032-0.196-0.096-0.26C13.043,8.532,12.966,8.5,12.875,8.5h-1.75c-0.092,0-0.169,0.032-0.232,0.096
		C10.828,8.66,10.797,8.746,10.797,8.855z"/>
</g>
</svg>
