<?xml version="1.0" encoding="utf-8"?>
<!-- Generator: Adobe Illustrator 16.0.0, SVG Export Plug-In . SVG Version: 6.00 Build 0)  -->
<!DOCTYPE svg PUBLIC "-//W3C//DTD SVG 1.1//EN" "http://www.w3.org/Graphics/SVG/1.1/DTD/svg11.dtd">
<svg version="1.1" id="Layer_1" xmlns="http://www.w3.org/2000/svg" xmlns:xlink="http://www.w3.org/1999/xlink" x="0px" y="0px"
	 width="24px" height="24px" viewBox="0 0 24 24" enable-background="new 0 0 24 24" xml:space="preserve">
<path fill="#AEAEAE" d="M14,5.5c0-1.1-0.9-2-2-2h-1v-1c0-0.55-0.45-1-1-1H6c-0.55,0-1,0.45-1,1v1H4c-1.1,0-2,0.9-2,2v15
	c0,1.1,0.9,2,2,2h8c1.1,0,2-0.9,2-2h8v-15H14z M12,18.5h-2v-2h2V18.5z M12,9.5h-2v-2h2V9.5z M16,18.5h-2v-2h2V18.5z M16,9.5h-2v-2h2
	V9.5z M20,18.5h-2v-2h2V18.5z M20,9.5h-2v-2h2V9.5z"/>
</svg>
